<?xml version="1.0" standalone="no"?><!DOCTYPE svg PUBLIC "-//W3C//DTD SVG 1.1//EN" "http://www.w3.org/Graphics/SVG/1.1/DTD/svg11.dtd"><svg t="1643171574164" class="icon" viewBox="0 0 1024 1024" version="1.1" xmlns="http://www.w3.org/2000/svg" p-id="11769" xmlns:xlink="http://www.w3.org/1999/xlink" width="200" height="200"><defs><style type="text/css"></style></defs><path d="M526.956 457.235a15.358 15.358 0 0 1-19.673 0l-93.536-78.008-20.907 6.974c-40.887 13.64-74.026 44.06-91.134 83.635L202.36 755.013l39.735 19.883 93.912-234.966c6.277-15.705 29.619-11.213 29.619 5.7v285.21h302.987V545.63c0-16.913 23.342-21.405 29.619-5.7l93.912 234.966 39.734-19.883-99.345-285.177c-17.108-39.575-50.248-69.995-91.134-83.635l-20.907-6.974-93.536 78.008z m-9.837-31.793l90.275-75.288a15.358 15.358 0 0 1 14.696-2.774l29.029 9.684c49.375 16.471 89.354 53.287 109.855 101.159 0.093 0.217 34.877 100.028 104.35 299.432a15.358 15.358 0 0 1-7.63 18.787l-66.74 33.396c-8.038 4.023-17.798 0.312-21.134-8.034l-70.492-176.369V846.2c0 8.482-6.876 15.358-15.357 15.358H350.268c-8.482 0-15.358-6.876-15.358-15.358V625.435l-70.492 176.369c-3.336 8.346-13.095 12.057-21.133 8.034l-66.74-33.396a15.358 15.358 0 0 1-7.631-18.787l103.965-298.439c20.886-48.865 60.865-85.68 110.241-102.152l29.029-9.684a15.358 15.358 0 0 1 14.696 2.774l90.274 75.288z" fill="#DB564B" p-id="11770"></path><path d="M630.501 369.678a15.358 15.358 0 0 1-3.534 4.147c-15.692 12.866-49.036 40.675-99.981 83.384a15.358 15.358 0 0 1-19.688 0.038c-50.751-42.213-84.135-70.055-100.175-83.545a15.358 15.358 0 0 1-3.296-3.872c-19.213-32.132-29.755-99.41-21.435-154.489C392.663 147.34 452.995 89.01 517.119 89.01c64.033 0 124.021 56.701 134.76 123.74 8.839 55.18-1.686 123.118-21.378 156.928z m-9.432-72.14c4.15-26.793 4.502-54.824 0.48-79.929-8.45-52.755-56.193-97.883-104.43-97.883-48.12 0-96.249 46.53-104.356 100.203-3.79 25.095-3.324 52.949 0.812 79.35 3.445 21.981 9.252 41.268 15.418 52.68 15.551 13.062 44.92 37.558 88.09 73.473 43.3-36.284 72.67-60.773 88.143-73.498 6.444-12.186 12.378-32.032 15.843-54.395z" fill="#1E5CA6" p-id="11771"></path><path d="M517.12 153.349c44.83 0 78.459 27.04 91.495 69.694 12.306 40.265 4.724 89.39-21.359 132.066-10.132 16.576-29.087 49.26-56.79 97.929-5.823 10.23-20.516 10.375-26.54 0.262-28.503-47.842-48.106-80.599-58.795-98.243-25.372-41.881-32.092-91.014-19.191-131.574 13.6-42.764 47.178-70.134 91.18-70.134z m43.928 185.741c21.65-35.422 27.837-75.513 18.192-107.07-9.226-30.187-31.324-47.955-62.12-47.955-29.926 0-52.18 18.14-61.91 48.728-10.151 31.919-4.685 71.888 16.192 106.349 8.956 14.783 24.095 40.05 45.426 75.815 20.85-36.457 35.575-61.722 44.22-75.867z" fill="#1E5CA6" p-id="11772"></path><path d="M466.308 703.987c-2.335 11.058-5.592 19.849-10.624 27.945-13.864 22.306-34.467 44.147-57.79 55.72-7.599 3.77-16.814 0.668-20.585-6.93-3.77-7.598-0.667-16.814 6.931-20.584 17.32-8.594 34.235-26.526 45.357-44.42 5.623-9.048 7.67-18.743 11.055-50.222 0.838-7.802 7.423-13.716 15.27-13.716h122.395c7.817 0 14.386 5.87 15.261 13.638 3.083 27.356 6.249 40.658 11.893 51.108 5.876 10.877 27.714 32.443 46.129 44.53 7.09 4.655 9.065 14.176 4.411 21.267-4.654 7.09-14.176 9.066-21.267 4.411-22.341-14.665-47.716-39.724-56.298-55.61-6.698-12.4-10.555-26.123-13.69-48.629H469.65c-1.127 9.404-2.067 15.45-3.342 21.492z" fill="#DB564B" p-id="11773"></path></svg>