<?xml version="1.0" standalone="no"?><!DOCTYPE svg PUBLIC "-//W3C//DTD SVG 1.1//EN" "http://www.w3.org/Graphics/SVG/1.1/DTD/svg11.dtd"><svg t="1643190102348" class="icon" viewBox="0 0 1024 1024" version="1.1" xmlns="http://www.w3.org/2000/svg" p-id="11128" xmlns:xlink="http://www.w3.org/1999/xlink" width="200" height="200"><defs><style type="text/css"></style></defs><path d="M970.646 746.65H586.654l127.996-127.998-213.306-298.648h469.302l-127.996 213.308z" fill="#DA4453" p-id="11129"></path><path d="M117.354 192.008h597.296v426.644H117.354z" fill="#ED5564" p-id="11130"></path><path d="M117.354 1023.988c-11.782 0-21.344-9.562-21.344-21.344V114.666c0-11.782 9.562-21.344 21.344-21.344s21.31 9.562 21.31 21.344v887.978c0 11.782-9.53 21.344-21.31 21.344z" fill="#F6BB42" p-id="11131"></path><path d="M117.354 0.012c-35.312 0-64 28.686-64 63.998 0 35.282 28.688 64 64 64 35.28 0 63.998-28.718 63.998-64 0-35.312-28.72-63.998-63.998-63.998zM552.154 300.286a21.33 21.33 0 0 0-23.248 4.624L480 353.816l-48.904-48.906a21.332 21.332 0 0 0-30.188 0l-48.904 48.906-48.906-48.906c-6.124-6.094-15.282-7.938-23.248-4.624a21.32 21.32 0 0 0-13.188 19.718v170.652c0 11.782 9.562 21.344 21.342 21.344H544c11.78 0 21.342-9.562 21.342-21.344v-170.652c0-8.656-5.218-16.438-13.188-19.718z" fill="#FFCE54" p-id="11132"></path><path d="M586.654 618.652v127.998l127.996-127.998z" fill="#BA3246" p-id="11133"></path></svg>