<?xml version="1.0" standalone="no"?><!DOCTYPE svg PUBLIC "-//W3C//DTD SVG 1.1//EN" "http://www.w3.org/Graphics/SVG/1.1/DTD/svg11.dtd"><svg t="1643171616989" class="icon" viewBox="0 0 1024 1024" version="1.1" xmlns="http://www.w3.org/2000/svg" p-id="22024" xmlns:xlink="http://www.w3.org/1999/xlink" width="200" height="200"><defs><style type="text/css"></style></defs><path d="M306.08 432m48 0l0 0q48 0 48 48l0 304q0 48-48 48l0 0q-48 0-48-48l0-304q0-48 48-48Z" fill="#FF7F00" p-id="22025"></path><path d="M418.08 208a16 16 0 0 0-16 16v112h-32v-112a16 16 0 1 0-32 0v112h-32v-112a16 16 0 1 0-32 0v112a80 80 0 0 0 160 0v-112a16 16 0 0 0-16-16z" fill="#1C0D00" p-id="22026"></path><path d="M624 432m48 0l0 0q48 0 48 48l0 304q0 48-48 48l0 0q-48 0-48-48l0-304q0-48 48-48Z" fill="#1C0D00" p-id="22027"></path><path d="M592 304a112 80 90 1 0 160 0 112 80 90 1 0-160 0Z" fill="#FF7F00" p-id="22028"></path></svg>