<svg t="1642770601260" class="icon" viewBox="0 0 1102 1024" version="1.1" xmlns="http://www.w3.org/2000/svg" p-id="35982" width="200" height="200"><path d="M433.699048 291.916638c0 64.826429-52.853625 117.680054-117.680054 117.680054a117.916359 117.916359 0 0 1-117.680054-117.680054c0-64.826429 52.853625-117.680054 117.680054-117.680054s117.680054 52.853625 117.680054 117.680054z m-78.532138 0a39.147916 39.147916 0 1 0-78.295833 0 39.147916 39.147916 0 0 0 78.295833 0z" p-id="35983"></path><path d="M670.398219 136.97911l356.978584 363.28006c22.842848 22.291469 35.997178 54.192689 35.997179 87.905582 0 33.476588-12.996793 65.220271-35.603337 87.03913l-323.738301 316.097762c-44.898013 43.558949-130.125468 43.716486-175.181017-0.236305L126.50212 596.592976C57.107121 529.009651 39.384222 502.070844 39.384222 410.463145V236.857496C39.384222 73.097903 72.624505 0.000788 269.388075 0.000788h162.341762c99.878386-0.236305 158.088265 57.343427 238.668382 136.978322z m-21.26748 797.530486l323.81707-315.861456a42.298654 42.298654 0 0 0 11.578961-30.483388 43.401412 43.401412 0 0 0-12.760488-31.901219l-323.974606-330.827461-32.846441-32.137525C534.837729 113.899956 496.398728 78.769231 431.651068 78.769231H269.15177c-140.916745 0-151.156642 21.818859-151.156642 157.773191v173.605649c0 62.463375 1.811674 69.946377 63.329828 129.652857l402.427976 394.6299c7.876844 7.719307 19.692111 12.051572 32.610135 12.051572a47.024761 47.024761 0 0 0 32.846441-12.051572z" p-id="35984"></path></svg>