<?xml version="1.0" standalone="no"?><!DOCTYPE svg PUBLIC "-//W3C//DTD SVG 1.1//EN" "http://www.w3.org/Graphics/SVG/1.1/DTD/svg11.dtd"><svg t="1642757234290" class="icon" viewBox="0 0 1024 1024" version="1.1" xmlns="http://www.w3.org/2000/svg" p-id="11141" data-spm-anchor-id="a313x.7781069.0.i6" xmlns:xlink="http://www.w3.org/1999/xlink" width="200" height="200"><defs><style type="text/css"></style></defs><path d="M512 4.096C231.424 4.096 3.584 231.424 3.584 512.512s227.84 507.904 508.416 507.904 508.416-227.328 508.416-508.416S793.088 4.096 512 4.096z m0 941.056c-239.616 0-433.664-194.048-433.664-433.664 0-239.616 194.048-433.664 433.664-433.664s433.664 194.048 433.664 433.664-194.048 433.664-433.664 433.664z" fill="#2c2c2c" p-id="11142" data-spm-anchor-id="a313x.7781069.0.i7" class="selected"></path><path d="M842.24 581.632c-0.512-2.56-0.512-5.12-1.536-7.68l-1.536-4.608c-0.512-1.536-1.024-3.072-2.048-4.608-0.512-0.512-0.512-1.536-1.024-2.048-1.024-1.536-1.536-3.072-2.56-4.096-1.536-2.048-3.072-4.096-4.608-5.632l-1.536-1.536c-1.024-1.024-2.56-2.048-3.584-3.072-2.56-2.048-5.12-4.096-8.192-5.632-2.048-1.024-4.608-2.048-6.656-3.072-1.024-0.512-1.536-0.512-2.56-1.024-1.536-0.512-3.072-1.024-5.12-1.024-3.584-0.512-6.656-1.024-10.24-1.024s-7.168 0.512-10.24 1.024c-1.536 0.512-3.072 0.512-5.12 1.024-1.024 0-1.536 0.512-2.56 1.024-0.512 0-1.024 0.512-1.024 0.512L653.312 435.2c2.56-6.144 4.096-12.8 4.096-19.456 0-1.536 0-3.584-0.512-5.12-0.512-2.56-0.512-5.12-1.536-7.68l-1.536-4.608c-0.512-1.536-1.024-3.072-2.048-4.608-0.512-0.512-0.512-1.536-1.024-2.048-1.024-1.536-1.536-3.072-2.56-4.096-1.536-2.048-3.072-4.096-4.608-5.632l-1.536-1.536c-1.024-1.024-2.56-2.048-3.584-3.072-2.56-2.048-5.12-4.096-8.192-5.632-2.048-1.024-4.608-2.048-6.656-3.072-1.024-0.512-1.536-0.512-2.56-1.024-1.536-0.512-3.072-1.024-5.12-1.024-3.584-0.512-6.656-1.024-10.24-1.024-1.536 0-3.584 0-5.12 0.512-2.048 0-3.584 0.512-5.632 1.024-1.536 0.512-3.072 0.512-4.608 1.024-1.024 0-1.536 0.512-2.56 1.024-2.56 1.024-4.608 2.048-6.656 3.072-1.536 1.024-3.072 1.536-4.096 2.56-1.536 1.024-3.072 2.56-4.608 3.584-1.024 1.024-2.048 1.536-2.56 2.56-1.024 1.024-1.536 2.048-2.56 2.56-1.536 1.536-2.56 3.072-3.584 4.608-1.024 1.536-1.536 2.56-2.56 4.096-1.024 2.048-2.048 4.608-3.072 6.656-0.512 1.024-0.512 1.536-1.024 2.56-0.512 1.536-1.024 3.072-1.024 4.608-0.512 2.048-0.512 3.584-1.024 5.632 0 1.536-0.512 3.584-0.512 5.12 0 3.584 0.512 7.168 1.024 10.24 0.512 1.536 0.512 3.072 1.024 5.12 0 1.024 0.512 1.536 1.024 2.56s1.024 2.56 1.536 3.584l-128 128c-1.024-0.512-1.536-1.024-2.56-1.024-3.072-1.536-6.144-2.56-9.728-3.072-1.024 0-1.536-0.512-2.56-0.512-2.56-0.512-5.12-0.512-7.68-0.512s-5.12 0-7.68 0.512c-1.024 0-1.536 0.512-2.56 0.512-3.072 0.512-6.656 1.536-9.728 3.072-0.512 0.512-1.536 0.512-2.048 1.024L280.576 450.048c2.56-6.144 4.096-13.312 4.096-19.968 0-1.536 0-3.584-0.512-5.12-0.512-2.56-0.512-5.12-1.536-7.68l-1.536-4.608c-0.512-1.536-1.024-3.072-2.048-4.608-0.512-0.512-0.512-1.536-1.024-2.048-1.024-1.536-1.536-3.072-2.56-4.096-1.536-2.048-3.072-4.096-4.608-5.632l-1.536-1.536c-1.024-1.024-2.56-2.048-3.584-3.072-2.56-2.048-5.12-4.096-8.192-5.632-2.048-1.024-4.608-2.048-6.656-3.072-1.024-0.512-1.536-0.512-2.56-1.024-1.536-0.512-3.072-1.024-5.12-1.024-3.584-0.512-6.656-1.024-10.24-1.024s-7.168 0.512-10.24 1.024c-1.536 0.512-3.072 0.512-5.12 1.024-1.024 0-1.536 0.512-2.56 1.024-2.56 1.024-4.608 2.048-6.656 3.072-3.072 1.536-5.632 3.584-8.192 5.632-1.024 1.024-2.56 2.048-3.584 3.072l-1.536 1.536c-1.536 2.048-3.072 3.584-4.608 5.632-1.024 1.536-1.536 2.56-2.56 4.096-0.512 0.512-1.024 1.536-1.024 2.048-0.512 1.536-1.536 3.072-2.048 4.608l-1.536 4.608-1.536 7.68c0 1.536-0.512 3.584-0.512 5.12 0 28.16 23.04 51.2 51.2 51.2 6.656 0 13.312-1.024 18.944-3.584l108.032 115.2c-0.512 1.536-1.024 2.56-1.536 4.096-0.512 2.048-1.024 4.096-1.024 6.144-0.512 2.048-0.512 4.608-0.512 6.656s0 4.608 0.512 6.656 0.512 4.096 1.024 6.144c0.512 2.56 1.536 4.608 2.56 7.168 0.512 0.512 0.512 1.536 1.024 2.048 2.048 4.608 5.12 8.704 8.192 12.288 1.536 2.048 3.584 3.584 5.12 5.12 0.512 0.512 1.536 1.024 2.048 1.536 1.536 1.024 2.56 2.048 4.096 2.56 2.048 1.536 4.096 2.56 6.656 3.584 3.072 1.536 6.144 2.56 9.728 3.072 1.024 0 1.536 0.512 2.56 0.512 2.56 0.512 5.12 0.512 7.68 0.512s5.12 0 7.68-0.512c1.024 0 1.536-0.512 2.56-0.512 3.072-0.512 6.656-1.536 9.728-3.072 2.048-1.024 4.608-2.048 6.656-3.584 1.536-1.024 2.56-1.536 4.096-2.56 0.512-0.512 1.536-1.024 2.048-1.536 2.048-1.536 3.584-3.072 5.12-5.12 3.584-3.584 6.144-7.68 8.192-12.288 0.512-0.512 0.512-1.536 1.024-2.048 1.024-2.56 2.048-4.608 2.56-7.168 0.512-2.048 1.024-4.096 1.024-6.144 0.512-2.048 0.512-4.608 0.512-6.656s0-4.608-0.512-6.656-0.512-4.096-1.024-6.144c-0.512-1.024-0.512-2.56-1.024-3.584l130.56-130.56 4.608 1.536 7.68 1.536c1.536 0 3.584 0.512 5.12 0.512 6.656 0 13.312-1.536 19.456-4.096l118.272 104.448c-0.512 1.024-1.024 2.048-1.024 2.56l-1.536 4.608-1.536 7.68c0 1.536-0.512 3.584-0.512 5.12s0 3.584 0.512 5.12c0.512 2.56 0.512 5.12 1.536 7.68l1.536 4.608c0.512 1.536 1.024 3.072 2.048 4.608 0.512 0.512 0.512 1.536 1.024 2.048 1.024 1.536 1.536 3.072 2.56 4.096 1.536 2.048 3.072 4.096 4.608 5.632l1.536 1.536c1.024 1.024 2.56 2.048 3.584 3.072 2.56 2.048 5.12 4.096 8.192 5.632 2.048 1.024 4.608 2.048 6.656 3.072 1.024 0.512 1.536 0.512 2.56 1.024 1.536 0.512 3.072 1.024 5.12 1.024 3.584 0.512 6.656 1.024 10.24 1.024s7.168-0.512 10.24-1.024c1.536-0.512 3.072-0.512 5.12-1.024 1.024 0 1.536-0.512 2.56-1.024 2.56-1.024 4.608-2.048 6.656-3.072 3.072-1.536 5.632-3.584 8.192-5.632 1.024-1.024 2.56-2.048 3.584-3.072l1.536-1.536c1.536-2.048 3.072-3.584 4.608-5.632 1.024-1.536 1.536-2.56 2.56-4.096 0.512-0.512 1.024-1.536 1.024-2.048 0.512-1.536 1.536-3.072 2.048-4.608l1.536-4.608 1.536-7.68c0-1.536 0.512-3.584 0.512-5.12s1.536-3.584 1.536-5.12z" fill="#d81e06" p-id="11143" data-spm-anchor-id="a313x.7781069.0.i8" class=""></path></svg>